# xmcd CD database file
#
# Track frame offsets:
#	150
#	13885
#	34000
#	59020
#	78495
#	99530
#	126740
#	158325
#	179957
#	204977
#	226215
#	241922
#	269000
#	290967
#	302027
#
# Disc length: 4180 seconds
#
# Revision: 0
# Processed by: cddbd v1.4PL0 Copyright (c) Steve Scherf et al.
# Submitted via: Feurio! 1.62 - http://www.feurio.com
#
DISCID=e010520f
DTITLE=Various Artist - Absolutely Live 1994
DYEAR=1994
DGENRE=Almaviva Records
TTITLE0=The Schramms - Little Hymn
TTITLE1=OKra All-Stars - Blue Sides (To Every Story)
TTITLE2=Freakwater - Forgettable Song
TTITLE3=Penelope Houston - Sweetheart
TTITLE4=Chris Cacavas - Dwarf Star
TTITLE5=Louis Tillett and Charlie Owen - Swimming In The Mirror
TTITLE6=Keith Secola and The Wild Band Of Indians - Indian Cars
TTITLE7=Terem Quartet - Spring Day (From: The Seasons)
TTITLE8=Bratsch - Bi Divanosko (Pour Edith)
TTITLE9=Broadlahn - Jodler Mit Schleunig
TTITLE10=Les Tambours Du Bronx - Locomotive
TTITLE11=Walter Salas-Humara - Susan Across The Ocean
TTITLE12=Townes Van Zandt - Marie
TTITLE13=Townes Van Zandt - Katie Belle Blue
TTITLE14=Freakwater - Lullabye
EXTD=AR 001
EXTT0=
EXTT1=
EXTT2=
EXTT3=
EXTT4=
EXTT5=
EXTT6=
EXTT7=
EXTT8=
EXTT9=
EXTT10=
EXTT11=
EXTT12=
EXTT13=
EXTT14=
PLAYORDER=
